<?xml version="1.0" encoding="UTF-8" standalone="no"?><!DOCTYPE svg PUBLIC "-//W3C//DTD SVG 1.1//EN" "http://www.w3.org/Graphics/SVG/1.1/DTD/svg11.dtd"><svg width="100%" height="100%" viewBox="0 0 520 150" version="1.1" xmlns="http://www.w3.org/2000/svg" xmlns:xlink="http://www.w3.org/1999/xlink" xml:space="preserve" style="fill-rule:evenodd;clip-rule:evenodd;stroke-linejoin:round;stroke-miterlimit:1.41421;"><rect id="LogoColor" x="0" y="0" width="520" height="150" style="fill:none;"/><g><path d="M220,100l12.763,0l2.552,-20.345c0.376,-3.229 0.601,-6.982 0.601,-7.508l0.15,0c0.075,0.451 0.976,4.279 1.802,7.358l5.63,20.495l14.19,0l5.78,-20.571c0.976,-3.453 1.802,-6.756 1.877,-7.282l0.15,0c0,0.526 0.376,3.754 0.826,7.508l2.328,20.345l14.639,0l-6.907,-50l-13.964,0l-8.783,28.378c-0.976,3.154 -2.102,7.808 -2.178,8.108l-0.15,0c-0.075,-0.3 -1.126,-4.954 -2.027,-8.108l-8.333,-28.378l-13.964,0l-6.982,50Z" style="fill:#155ea4;fill-rule:nonzero;"/><path d="M306.937,81.757l2.628,-7.883c1.426,-4.279 2.252,-8.409 2.327,-8.709l0.15,0c0.075,0.3 0.826,4.355 2.327,8.709l2.703,7.883l-10.135,0Zm-20.571,18.243l14.49,0l2.327,-7.057l17.793,0l2.402,7.057l15.616,0l-19.82,-50l-13.739,0l-19.069,50Z" style="fill:#155ea4;fill-rule:nonzero;"/><path d="M345.15,100l14.339,0l0,-19.895l17.718,0l0,19.895l14.264,0l0,-50l-14.264,0l0,18.468l-17.718,0l0,-18.468l-14.339,0l0,50Z" style="fill:#155ea4;fill-rule:nonzero;"/><path d="M402.282,100l31.907,0l0,-11.637l-17.793,0l0,-8.408l15.241,0l0,-10.811l-15.241,0l0,-7.507l17.268,0l0,-11.637l-31.382,0l0,50Z" style="fill:#155ea4;fill-rule:nonzero;"/><path d="M443.724,100l14.339,0l0,-18.619l0.526,0c1.576,0 2.327,0.451 4.654,4.355l8.484,14.264l15.39,0l-7.733,-12.988c-2.552,-4.354 -4.654,-6.682 -6.306,-7.883l0,-0.15c4.655,-1.652 9.76,-5.631 9.76,-13.739c0,-10.06 -7.207,-15.24 -19.97,-15.24l-19.144,0l0,50Zm14.339,-28.228l0,-11.186l4.054,0c4.73,0 6.682,1.876 6.682,5.63c0,3.454 -2.027,5.556 -6.231,5.556l-4.505,0Z" style="fill:#155ea4;fill-rule:nonzero;"/></g><path id="Rightlt" d="M24.717,34.428l33.531,-13.088l-3.604,63.306l-34.644,19.485l4.717,-69.703Z" style="fill:#00b2e6;"/><path id="Leftbt" d="M57.44,93.574l35.39,19.749l-36.547,17.462l-33.125,-22.297l34.282,-14.914Z" style="fill:#155ea4;"/><path id="Leftrt" d="M100.563,39.246l-31.48,-17.218l-5.712,64.314l32.475,22.607l4.717,-69.703Z" style="fill:#155ea4;"/><path id="Rightrt" d="M146.378,65.744l35.244,-18.305l-4.717,69.703l-33.531,13.088l3.004,-64.486Z" style="fill:#00b2e6;"/><path id="Rightlt1" d="M138.251,65.228l-32.475,-22.608l-4.717,69.704l31.48,17.218l5.712,-64.314Z" style="fill:#155ea4;"/><path id="Righttp" d="M145.339,20.785l33.882,21.936l-36.342,14.431l-34.087,-18.905l36.547,-17.462Z" style="fill:#155ea4;"/></svg>